# xmcd CD database file
#
# Track frame offsets:
#	187
#	13592
#	28105
#	42947
#	54217
#	72285
#	86412
#	99070
#	120010
#	133260
#	151360
#	164127
#
# Disc length: 2336 seconds
#
# Revision: 0
# Processed by: cddbd v1.4PL0 Copyright (c) Steve Scherf et al.
# Submitted via: CDex 1.50beta9
#
DISCID=8e091e0c
DTITLE=Oscar Peterson - Romance
DYEAR=1900
DGENRE=Jazz
TTITLE0=I'm glad there is you
TTITLE1=Polka dots and moonbeams
TTITLE2=One for my baby
TTITLE3=I hear music
TTITLE4=Autumn in new york
TTITLE5=I cant ive you anything but love
TTITLE6=spring is here
TTITLE7=there foolish things
TTITLE8=from this moment on
TTITLE9=the things we did last summer
TTITLE10=too marvekous for words
TTITLE11=but not for me
EXTD=
EXTT0=
EXTT1=
EXTT2=
EXTT3=
EXTT4=
EXTT5=
EXTT6=
EXTT7=
EXTT8=
EXTT9=
EXTT10=
EXTT11=
PLAYORDER=
